<svg width="9" height="9" viewBox="0 0 9 9" fill="none" xmlns="http://www.w3.org/2000/svg">
<path fill-rule="evenodd" clip-rule="evenodd" d="M1.17063 0.200848C0.902844 -0.0669398 0.468673 -0.0669401 0.200885 0.200848C-0.066903 0.468636 -0.0669025 0.902807 0.200886 1.17059L2.40307 3.37278C2.7936 3.76331 2.7936 4.39647 2.40308 4.787L0.200942 6.98913C-0.0668461 7.25692 -0.0668464 7.69109 0.200942 7.95888C0.46873 8.22666 0.9029 8.22666 1.17069 7.95888L3.37282 5.75674C3.76335 5.36622 4.39651 5.36622 4.78703 5.75674L6.98911 7.95882C7.2569 8.22661 7.69107 8.22661 7.95886 7.95882C8.22665 7.69103 8.22665 7.25686 7.95886 6.98907L5.75678 4.787C5.36626 4.39647 5.36626 3.76331 5.75678 3.37278L7.95891 1.17065C8.2267 0.902863 8.2267 0.468693 7.95891 0.200905C7.69113 -0.0668831 7.25696 -0.0668838 6.98917 0.200904L4.78703 2.40304C4.39651 2.79356 3.76335 2.79356 3.37282 2.40304L1.17063 0.200848Z" fill="#FF8303"/>
</svg>
