<svg width="19" height="16" viewBox="0 0 19 16" fill="none" xmlns="http://www.w3.org/2000/svg">
<path d="M16.8084 0.135183C16.8084 0.135183 18.5083 -0.527629 18.3666 1.08206C18.3194 1.74488 17.8944 4.06472 17.5639 6.57396L16.4307 14.007C16.4307 14.007 16.3363 15.0958 15.4864 15.2852C14.6364 15.4746 13.3616 14.6224 13.1255 14.433C12.9366 14.291 9.58422 12.1605 8.40376 11.119C8.07323 10.8349 7.69549 10.2668 8.45097 9.60396L13.4088 4.86959C13.9754 4.30146 14.542 2.97583 12.1811 4.58552L5.57073 9.0832C5.57073 9.0832 4.81526 9.55662 3.39876 9.13054L0.329622 8.18366C0.329622 8.18366 -0.803595 7.47351 1.13232 6.76331C5.85406 4.53814 11.6618 2.26564 16.8084 0.135183Z" fill="#F0E3CA"/>
</svg>
