<svg width="21" height="13" viewBox="0 0 21 13" fill="none" xmlns="http://www.w3.org/2000/svg">
<path d="M20.5214 0.85925C20.2851 1.60212 19.9666 2.24875 19.5676 2.83588L19.5842 2.80962C19.1922 3.46296 18.7241 4.21779 18.1799 5.07412C17.7132 5.75021 17.4662 6.10021 17.4388 6.12412C17.318 6.2755 17.234 6.461 17.2051 6.66487L17.2043 6.671C17.2279 6.8565 17.3136 7.01837 17.4388 7.13912L17.7887 7.52937C19.6612 9.45379 20.7145 10.7803 20.9484 11.5089C20.979 11.5894 20.9965 11.6821 20.9965 11.7792C20.9965 11.949 20.9423 12.1056 20.8504 12.2342L20.8521 12.2316C20.6981 12.39 20.4829 12.488 20.2449 12.488C20.2186 12.488 20.1915 12.4871 20.1661 12.4845H20.1696H17.8675C17.8666 12.4845 17.8649 12.4845 17.8631 12.4845C17.5682 12.4845 17.297 12.3812 17.0844 12.2097L17.087 12.2115C16.7773 11.9569 16.5016 11.6812 16.2549 11.382L16.247 11.3715C15.8439 10.9159 15.4863 10.5324 15.1742 10.2209C14.1347 9.23271 13.3677 8.73862 12.873 8.73862C12.8546 8.73687 12.8336 8.736 12.8118 8.736C12.6674 8.736 12.5326 8.78062 12.4215 8.85675L12.4241 8.855C12.3331 8.96875 12.278 9.11575 12.278 9.27412C12.278 9.30562 12.2797 9.33537 12.2841 9.366V9.3625C12.2605 9.63725 12.2465 9.95662 12.2465 10.2795C12.2465 10.3836 12.2482 10.4869 12.2509 10.5901V10.5752V11.5894C12.2596 11.6305 12.2649 11.6777 12.2649 11.7259C12.2649 11.9376 12.1686 12.1266 12.0181 12.2517L12.0173 12.2526C11.6786 12.4075 11.2831 12.4985 10.8657 12.4985C10.7765 12.4985 10.689 12.4941 10.6024 12.4862L10.6138 12.4871C9.2365 12.4609 7.959 12.0575 6.87313 11.3776L6.90375 11.3951C5.58163 10.5919 4.48613 9.54625 3.65138 8.31075L3.62775 8.274C2.835 7.22225 2.09562 6.034 1.46562 4.781L1.40438 4.64625C1.036 3.9445 0.6545 3.08175 0.3255 2.1945L0.273 2.03262C0.139125 1.63362 0.042 1.16988 0.00175 0.6895L0 0.667625C0 0.225458 0.260167 0.0043751 0.7805 0.0043751H3.08175C3.10275 0.0026251 3.12725 0.00174987 3.15262 0.00174987C3.36962 0.00174987 3.57 0.076125 3.72838 0.20125L3.72663 0.1995C3.90163 0.391125 4.03113 0.6265 4.095 0.889L4.09763 0.8995C4.52112 2.09562 4.97 3.10012 5.48625 4.06262L5.42763 3.94275C5.84938 4.7915 6.31575 5.52212 6.84775 6.19675L6.82763 6.16962C7.29429 6.74246 7.65829 7.02887 7.91962 7.02887C7.9275 7.02975 7.93713 7.02975 7.94763 7.02975C8.07713 7.02975 8.19 6.95975 8.25125 6.85475L8.25212 6.853C8.31687 6.68675 8.3545 6.49337 8.3545 6.29212C8.3545 6.24925 8.35275 6.20637 8.34925 6.16437V6.16962V2.7755C8.33087 2.37562 8.23287 2.002 8.06925 1.66687L8.07625 1.6835C7.96775 1.4525 7.83737 1.253 7.6825 1.07537L7.68512 1.07887C7.54163 0.935375 7.44362 0.74725 7.413 0.53725L7.41212 0.532C7.41212 0.38325 7.48037 0.249375 7.58712 0.161875L7.588 0.161C7.69387 0.063875 7.83563 0.00525004 7.9905 0.00525004H7.9975H11.6252C11.6445 0.00262504 11.6664 0.00174987 11.6891 0.00174987C11.8597 0.00174987 12.0129 0.0787501 12.1144 0.1995L12.1152 0.200375C12.2054 0.364875 12.2587 0.56175 12.2587 0.77C12.2587 0.80325 12.257 0.835625 12.2544 0.868V0.863625V5.39C12.2526 5.411 12.2517 5.4355 12.2517 5.46C12.2517 5.621 12.2964 5.77237 12.3734 5.901L12.3716 5.8975C12.4355 5.992 12.5422 6.05325 12.663 6.05325H12.6639C12.8179 6.04275 12.9579 5.992 13.076 5.9115L13.0734 5.91325C13.3114 5.74962 13.5161 5.56325 13.6937 5.35237L13.6972 5.348C14.2284 4.74775 14.7184 4.0845 15.1454 3.37925L15.1795 3.318C15.4805 2.81925 15.806 2.205 16.1009 1.57412L16.1551 1.4455L16.5454 0.665C16.681 0.27475 17.045 0 17.4729 0C17.4895 0 17.5061 -6.34609e-08 17.5227 0.000874937H17.5201H19.8223C20.4441 0.000874937 20.6774 0.287 20.5223 0.85925H20.5214Z" fill="#F0E3CA"/>
</svg>
