<svg width="17" height="17" viewBox="0 0 17 17" fill="none" xmlns="http://www.w3.org/2000/svg">
<path d="M15.5864 3.88487C13.0664 -0.000128424 7.92142 -1.15513 3.93142 1.25987C0.0464237 3.67487 -1.21358 8.92487 1.30642 12.8099L1.51642 13.1249L0.676424 16.2749L3.82642 15.4349L4.14142 15.6449C5.50642 16.3799 6.97642 16.7999 8.44642 16.7999C10.0214 16.7999 11.5964 16.3799 12.9614 15.5399C16.8464 13.0199 18.0014 7.87487 15.5864 3.88487ZM13.3814 11.9699C12.9614 12.5999 12.4364 13.0199 11.7014 13.1249C11.2814 13.1249 10.7564 13.3349 8.65642 12.4949C6.87142 11.6549 5.40142 10.2899 4.35142 8.71487C3.72142 7.97987 3.40642 7.03487 3.30142 6.08987C3.30142 5.24987 3.61642 4.51487 4.14142 3.98987C4.35142 3.77987 4.56142 3.67487 4.77142 3.67487H5.29642C5.50642 3.67487 5.71642 3.67487 5.82142 4.09487C6.03142 4.61987 6.55642 5.87987 6.55642 5.98487C6.66142 6.08987 6.66142 6.29987 6.55642 6.40487C6.66142 6.61487 6.55642 6.82487 6.45142 6.92987C6.34642 7.03487 6.24142 7.24487 6.13642 7.34987C5.92642 7.45487 5.82142 7.66487 5.92642 7.87487C6.34642 8.50487 6.87142 9.13487 7.39642 9.65987C8.02642 10.1849 8.65642 10.6049 9.39142 10.9199C9.60142 11.0249 9.81142 11.0249 9.91642 10.8149C10.0214 10.6049 10.5464 10.0799 10.7564 9.86987C10.9664 9.65987 11.0714 9.65987 11.2814 9.76487L12.9614 10.6049C13.1714 10.7099 13.3814 10.8149 13.4864 10.9199C13.5914 11.2349 13.5914 11.6549 13.3814 11.9699Z" fill="#F0E3CA"/>
</svg>
